<svg xmlns="http://www.w3.org/2000/svg" width="22.01" height="16.622" viewBox="0 0 22.01 16.622">
    <path id="路径_3" data-name="路径 3"
        d="M162.305,182.422c-.092.345-1.011.609-1.527.838a.259.259,0,0,0-.126.356v.011a7.1,7.1,0,0,0,.838,1.39.537.537,0,0,0,.586.172,18.33,18.33,0,0,0,4.2-2,2.351,2.351,0,0,0,1.068-1.849,18.3,18.3,0,0,0-3.319-11.392h0a17.3,17.3,0,0,0-4.054-1.332.7.7,0,0,0-.769.4.967.967,0,0,1-.126.241.671.671,0,0,1-.689.379,17.2,17.2,0,0,0-4.065,0c-.471.08-.643-.31-.815-.666a.693.693,0,0,0-.746-.367,17.791,17.791,0,0,0-4.031,1.309,18.4,18.4,0,0,0-3.353,11.4,2.341,2.341,0,0,0,1.022,1.826,15.255,15.255,0,0,0,4.261,2.021.557.557,0,0,0,.609-.23c1.252-1.929,1.309-1.252-.838-2.412a.075.075,0,0,1-.023-.1.011.011,0,0,1,.011-.011m.413-.172a13.028,13.028,0,0,0,11.059,0m-9.176-2.251a2.231,2.231,0,0,1,0-4.433,2.231,2.231,0,0,1,0,4.433Zm7.316,0a2.231,2.231,0,0,1,0-4.433,2.088,2.088,0,0,1,1.975,2.216,2.126,2.126,0,0,1-1.975,2.216Z"
        transform="translate(-145.361 -168.594)" fill="#707070"></path>
</svg>