<svg xmlns="http://www.w3.org/2000/svg" width="21.636" height="19.19" viewBox="0 0 21.636 19.19">
    <g id="组_12" data-name="组 12" transform="translate(-1819.048 -45.292)">
        <path id="路径_1" data-name="路径 1"
            d="M162.334,197.6l.08-.115,4.559-7.132a.14.14,0,0,1,.138-.069.134.134,0,0,1,.126.092c.758,1.711,1.424,3.836,1.114,5.156a8.2,8.2,0,0,1-.9,1.964c-.057.1-.115.2-.172.287a.159.159,0,0,1-.126.069h-4.7a.163.163,0,0,1-.161-.149l.034-.1Z"
            transform="translate(1658.011 -141.155)" fill="#707070"></path>
        <path id="路径_2" data-name="路径 2"
            d="M172.936,169.383v1.125a.148.148,0,0,1-.1.149,5.558,5.558,0,0,0-2.067,1.4c-1.286,1.78-2.239,4.031-4.433,4.031h-9.142a5.646,5.646,0,0,1-5.891-5.581v-.023a.243.243,0,0,1,.241-.241h5.019a.179.179,0,0,1,.172.184v.011a1.7,1.7,0,0,0,.184.976,1.8,1.8,0,0,0,1.608,1h2.171a.358.358,0,0,0,.356-.356V170.8a.358.358,0,0,0-.356-.356h-2.148a.164.164,0,0,1-.161-.161.271.271,0,0,1,.023-.092c.023-.046.057-.08.092-.138.23-.333.574-.861.907-1.447a12.77,12.77,0,0,0,.632-1.252c.034-.08.069-.161.092-.23.046-.138.1-.264.138-.39a2.821,2.821,0,0,0,.092-.333,5.489,5.489,0,0,0,.115-1.148c0-.161-.011-.322-.023-.482s-.023-.345-.046-.517-.046-.31-.069-.459c-.034-.23-.092-.459-.149-.689l-.023-.092c-.046-.161-.08-.31-.126-.459-.138-.482-.3-.953-.482-1.424-.069-.184-.138-.345-.207-.517-.1-.253-.218-.494-.31-.712-.046-.092-.092-.2-.138-.287s-.1-.207-.149-.31c-.034-.08-.08-.149-.1-.218v-.012l-.31-.574a.088.088,0,0,1,.011-.115.093.093,0,0,1,.1-.034l1.929.528h.012l.253.069.276.08h0a.151.151,0,0,0,.184-.092c0-.012.012-.023,0-.046v-.953a.925.925,0,1,1,1.838-.023v1.642c0,.034.08.069.115.08l.149.046a.087.087,0,0,1,.046.023c.046.034.126.092.218.161.069.057.149.126.241.2.184.149.4.345.655.563.069.057.126.115.184.172a13.933,13.933,0,0,1,1,1.011c.092.1.184.218.276.333s.2.23.276.345c.115.149.23.31.345.471a1.64,1.64,0,0,0,.161.23c.138.207.253.425.379.632.046.1.1.207.138.31a4.6,4.6,0,0,1,.3.873h0a.971.971,0,0,1,.046.2v.011a1.132,1.132,0,0,1,.034.276,2.816,2.816,0,0,1-.161,1.275c-.046.126-.092.253-.138.368a4.507,4.507,0,0,1-.39.735c-.046.092-.1.172-.161.264s-.126.184-.184.264c-.08.1-.161.218-.253.322h0a3.044,3.044,0,0,1-.241.3c-.126.138-.241.276-.356.4a2.4,2.4,0,0,1-.23.253l-.23.23c-.1.1-.207.2-.31.287l-.2.184a.185.185,0,0,1-.1.034H163.37a.358.358,0,0,0-.356.356v1.263a.358.358,0,0,0,.356.356h1.585a1.743,1.743,0,0,0,1.171-.436c.115-.1.425-.39,1.045-1.011a3.456,3.456,0,0,1,1.091-.528h.011l4.376-1.252a.158.158,0,0,1,.126.011c.023.011.057.034.08.046a.126.126,0,0,1,.069.115v.069Z"
            transform="translate(1667.748 -111.608)" fill="#707070"></path>
    </g>
</svg>