<svg xmlns="http://www.w3.org/2000/svg" width="19.937" height="16.131" viewBox="0 0 19.937 16.131">
    <path id="路径_4" data-name="路径 4"
        d="M179.237,172.716a12.093,12.093,0,0,1-2.09.609c-.138.023-.115-.046,0-.126a4.83,4.83,0,0,0,1.5-2.044c0-.011,0-.023-.011-.023h-.011a8.353,8.353,0,0,1-2.538.942.137.137,0,0,1-.126-.046,4.183,4.183,0,0,0-3-1.229,4.11,4.11,0,0,0-4.1,4.835.13.13,0,0,1-.115.149h-.034a11.975,11.975,0,0,1-8.3-4.088.146.146,0,0,0-.207-.011c-.011.011-.023.023-.023.034a4.05,4.05,0,0,0,1.011,4.984.129.129,0,0,1,.011.184.173.173,0,0,1-.126.046,5.1,5.1,0,0,1-1.3-.379.164.164,0,0,0-.218.092.146.146,0,0,0-.011.069,4.253,4.253,0,0,0,2.928,3.629.131.131,0,0,1,.092.161.112.112,0,0,1-.115.092,7.963,7.963,0,0,1-1.47-.138.138.138,0,0,0-.149.115.146.146,0,0,0,.011.069,4.925,4.925,0,0,0,3.847,2.722.132.132,0,0,1,.069.241,8.617,8.617,0,0,1-5.317,1.516.138.138,0,0,0-.149.115.132.132,0,0,0,.069.126c8.854,4.766,18.2-2.079,17.789-10.5a.141.141,0,0,1,.057-.115A8.291,8.291,0,0,0,179.237,172.716Z"
        transform="translate(-159.3 -170.798)" fill="#707070"></path>
</svg>